<svg xmlns="http://www.w3.org/2000/svg" xmlns:xlink="http://www.w3.org/1999/xlink" viewBox="0 0 107.76 147.76"><defs><style>.cls-1{fill:url(#linear-gradient);}.cls-2{fill:url(#linear-gradient-3);}.cls-3{fill:url(#linear-gradient-4);}.cls-4{fill:url(#linear-gradient-6);}</style><linearGradient id="linear-gradient" x1="-31.93" y1="15.65" x2="164.35" y2="24.73" gradientUnits="userSpaceOnUse"><stop offset="0" stop-color="#0e99ff"/><stop offset="1" stop-color="#393bd7"/></linearGradient><linearGradient id="linear-gradient-3" x1="-34.44" y1="69.75" x2="161.84" y2="78.84" xlink:href="#linear-gradient"/><linearGradient id="linear-gradient-4" x1="-35.78" y1="98.78" x2="160.5" y2="107.86" xlink:href="#linear-gradient"/><linearGradient id="linear-gradient-6" x1="-32.11" y1="19.57" x2="164.17" y2="28.66" xlink:href="#linear-gradient"/></defs><title>blue-logo-only</title><g id="Layer_2" data-name="Layer 2"><g id="Layer_1-2" data-name="Layer 1"><path class="cls-1" d="M56.67,16.24h.25a3.52,3.52,0,0,1,.09,7H56.7Z"/><path class="cls-1" d="M56.67,16.24h.25a3.52,3.52,0,0,1,.09,7H56.7Z"/><path class="cls-2" d="M56.92,23.27v-7h-.73a62,62,0,0,0-12.54,1.32,42.72,42.72,0,0,0-12.15,4.5,28.18,28.18,0,0,0-9.9,9.18,24.58,24.58,0,0,0-3.75,13.2h0a35,35,0,0,0,.71,7.09A27.75,27.75,0,0,0,21,58.46a25.76,25.76,0,0,0,4.28,6A32.2,32.2,0,0,0,30.78,69,57.24,57.24,0,0,0,43,75c4.15,1.52,8.3,2.75,12.38,4,3.69,1.12,7.32,2.24,10.79,3.55a45.58,45.58,0,0,1,9.64,4.77,19.53,19.53,0,0,1,6.61,7.16,20.52,20.52,0,0,1,2,9.61h0a16.84,16.84,0,0,1-2.67,9.22,20.23,20.23,0,0,1-7.37,6.63,34.6,34.6,0,0,1-10,3.52,59.74,59.74,0,0,1-11,1h0a47.8,47.8,0,0,1-12.95-1.9,49.08,49.08,0,0,1-18-9.32h0a12.26,12.26,0,0,0-8.29-2.85,12,12,0,0,0-8,3.52h0l-4.36,4.36s0,0,0,0a6.12,6.12,0,0,0-.11,8.54l0,0a72.05,72.05,0,0,0,10.93,9.29,62.86,62.86,0,0,0,12.73,6.76,76.26,76.26,0,0,0,28,4.88h0a72.17,72.17,0,0,0,25.65-4.4,52.12,52.12,0,0,0,10.77-5.62h0A42.05,42.05,0,0,0,103,123.24a40.06,40.06,0,0,0,4.75-19v0a43.82,43.82,0,0,0-4.63-20.34A42.66,42.66,0,0,0,89.21,68.25h0a66.88,66.88,0,0,0-13.77-7.11c-4.74-1.85-9.52-3.29-14.22-4.72h0c-2.65-.83-5.29-1.66-7.83-2.64a46.76,46.76,0,0,1-7.8-3.65l-.85-.54L44,49a6.45,6.45,0,0,1-.67-.57L43,48.16c-.1-.09-.16-.19-.25-.28a2.78,2.78,0,0,1-.42-.55c-.06-.08-.11-.17-.18-.25s-.06-.16-.1-.24a2.54,2.54,0,0,1-.23-.93,3.24,3.24,0,0,0,0-.44c0-.17.06-.35.08-.52h0a4.33,4.33,0,0,1,1.75-2.1,15.78,15.78,0,0,1,3.86-1.9,28.28,28.28,0,0,1,9.33-1.43h0a44.57,44.57,0,0,1,10,1.37,31.64,31.64,0,0,1,9,3.6h0a21.63,21.63,0,0,0,5.32,2.41,21.28,21.28,0,0,0,5.78.75,19.76,19.76,0,0,0,16.2-9h0a19.72,19.72,0,0,0,3-9.5,20.37,20.37,0,0,0-2.41-10.49,20.85,20.85,0,0,0-7.31-7.84h0a61.57,61.57,0,0,0-8.34-4.31A80.31,80.31,0,0,0,72.85,1.69c-2.61-.53-5.25-1-7.91-1.25S59.61,0,56.92,0h0A77.88,77.88,0,0,0,37.74,2.3a55.49,55.49,0,0,0-17.93,8h0A42.81,42.81,0,0,0,6.41,25.05a40.73,40.73,0,0,0-4.8,19.41v0A46.73,46.73,0,0,0,6.2,65.11a42.93,42.93,0,0,0,6.22,9.32,47,47,0,0,0,8.3,7.4h0A69.73,69.73,0,0,0,35,89.33c4.91,2,9.91,3.49,14.84,4.91h0a79.76,79.76,0,0,1,11.55,4A15,15,0,0,1,65.66,101a5.28,5.28,0,0,1,1.07,1.55,3.88,3.88,0,0,1,.3,1.65l0,.48-.08.5h0a2.31,2.31,0,0,1-.72,1.26,5.69,5.69,0,0,1-1.94,1.08,19.93,19.93,0,0,1-6.08.9,38.74,38.74,0,0,1-4.42-.19h0a48.63,48.63,0,0,1-11.66-2.55A29.56,29.56,0,0,1,32.21,100l-.44-.39-1.22,1.26-1.22,1.27c-.4.43-.81.85-1.21,1.27l-1.22,1.27.58.53a36.49,36.49,0,0,0,12.22,7.09,55.39,55.39,0,0,0,13.36,2.94h0a50.28,50.28,0,0,0,5.22.22,26.46,26.46,0,0,0,8.33-1.32A12.56,12.56,0,0,0,71,111.62a9.15,9.15,0,0,0,1.8-2.26,9.49,9.49,0,0,0,1-2.74v0l.17-1.07c0-.36.06-.74.08-1.11a11,11,0,0,0-.85-4.59,12.3,12.3,0,0,0-2.51-3.72,21.82,21.82,0,0,0-6.31-4.26,87,87,0,0,0-12.63-4.37h0c-4.86-1.4-9.62-2.87-14.18-4.69a61.71,61.71,0,0,1-12.79-6.71h0A37,37,0,0,1,12.52,62,39.69,39.69,0,0,1,8.64,44.48v0a33.79,33.79,0,0,1,4-16.08A35.85,35.85,0,0,1,23.81,16.05h0A48.86,48.86,0,0,1,39.48,9.11,71,71,0,0,1,56.91,7h0c2.42,0,4.85.15,7.27.4S69,8.1,71.42,8.58a73.82,73.82,0,0,1,13.93,4.35,56.91,56.91,0,0,1,7.41,3.82h0l.74.51.37.26.34.29.68.57.62.65.31.32.28.35.56.7c.3.51.68,1,.93,1.52a13.35,13.35,0,0,1,1.58,6.84,12.74,12.74,0,0,1-1.93,6h0a12.7,12.7,0,0,1-10.43,5.8,12.67,12.67,0,0,1-7.14-2h0a38.79,38.79,0,0,0-11.11-4.51A52,52,0,0,0,57,32.47h0a35.27,35.27,0,0,0-11.73,1.82,22.18,22.18,0,0,0-5.69,2.86c-.46.33-.91.72-1.36,1.1l-.65.67a6.37,6.37,0,0,0-.63.72l-.59.81c-.18.28-.34.61-.51.92A9.69,9.69,0,0,0,35,43.45v0c-.07.42-.14.84-.2,1.26s0,.92,0,1.37A10.19,10.19,0,0,0,35,47.93c.07.31.16.61.24.91s.23.56.34.84.25.56.39.81l.46.72a9,9,0,0,0,1,1.3c.18.19.35.41.53.59l.54.5a11.69,11.69,0,0,0,1.1.94l1.11.83,1.13.72a52.13,52.13,0,0,0,9,4.25c2.76,1.07,5.52,1.94,8.29,2.8h0c4.69,1.42,9.3,2.82,13.7,4.54A59.28,59.28,0,0,1,85.2,74h0A35.82,35.82,0,0,1,96.88,87a36.84,36.84,0,0,1,3.84,17.1h0a33,33,0,0,1-3.9,15.75,34.88,34.88,0,0,1-11,12h0a44.54,44.54,0,0,1-9.29,4.84,57.54,57.54,0,0,1-11.3,3,76.18,76.18,0,0,1-11.82.92h0a68.86,68.86,0,0,1-25.46-4.39,55.82,55.82,0,0,1-11.32-6c-.88-.62-1.78-1.21-2.61-1.9s-1.72-1.29-2.51-2-1.64-1.4-2.41-2.16l-1.67-1.65h0c1.23-1.22,2.45-2.45,3.68-3.68h0a5,5,0,0,1,3.36-1.46,5.12,5.12,0,0,1,3.49,1.2h0a56.24,56.24,0,0,0,20.56,10.7,55.14,55.14,0,0,0,14.88,2.17h0a66.45,66.45,0,0,0,12.37-1.19,41.6,41.6,0,0,0,12-4.25,27.09,27.09,0,0,0,9.87-9,24,24,0,0,0,3.81-13h0a27.6,27.6,0,0,0-2.83-12.85,23.94,23.94,0,0,0-3.9-5.52,29.47,29.47,0,0,0-5-4.25,53.46,53.46,0,0,0-11.1-5.53c-3.77-1.42-7.54-2.58-11.25-3.71-4.09-1.24-8.13-2.44-12-3.86a50.92,50.92,0,0,1-10.75-5.18,21.71,21.71,0,0,1-7.45-8,23.36,23.36,0,0,1-2.36-10.76h0A17.58,17.58,0,0,1,27.54,35,21.1,21.1,0,0,1,35,28.18a35.68,35.68,0,0,1,10.14-3.73,55.61,55.61,0,0,1,11.13-1.17Z"/><path class="cls-3" d="M27.09,104.89l-.19-.18a3.52,3.52,0,1,1,4.72-5.21l.15.14.15.13Z"/><path class="cls-3" d="M27.09,104.89l-.19-.18a3.52,3.52,0,1,1,4.72-5.21l.15.14.15.13Z"/><path class="cls-4" d="M87.16,31.4a3.5,3.5,0,0,1-1.9-.56A48.71,48.71,0,0,0,71.09,25a3.52,3.52,0,0,1,1.71-6.83,55,55,0,0,1,16.28,6.75,3.52,3.52,0,0,1-1.92,6.47Z"/><path class="cls-4" d="M87.16,31.4a3.5,3.5,0,0,1-1.9-.56A48.71,48.71,0,0,0,71.09,25a3.52,3.52,0,0,1,1.71-6.83,55,55,0,0,1,16.28,6.75,3.52,3.52,0,0,1-1.92,6.47Z"/></g></g></svg>