<svg xmlns="http://www.w3.org/2000/svg" xmlns:xlink="http://www.w3.org/1999/xlink" viewBox="0 0 510.1 121.75"><defs><style>.cls-1{fill:url(#linear-gradient);}.cls-2{fill:url(#linear-gradient-9);}.cls-3{fill:url(#linear-gradient-11);}.cls-4{fill:url(#linear-gradient-12);}.cls-5{fill:url(#linear-gradient-14);}</style><linearGradient id="linear-gradient" x1="124.2" y1="60.88" x2="510.1" y2="60.88" gradientUnits="userSpaceOnUse"><stop offset="0" stop-color="#0e99ff"/><stop offset="1" stop-color="#393bd7"/></linearGradient><linearGradient id="linear-gradient-9" x1="-26.31" y1="12.89" x2="135.42" y2="20.38" xlink:href="#linear-gradient"/><linearGradient id="linear-gradient-11" x1="-28.38" y1="57.48" x2="133.36" y2="64.96" xlink:href="#linear-gradient"/><linearGradient id="linear-gradient-12" x1="-29.48" y1="81.39" x2="132.25" y2="88.88" xlink:href="#linear-gradient"/><linearGradient id="linear-gradient-14" x1="-26.46" y1="16.13" x2="135.27" y2="23.61" xlink:href="#linear-gradient"/></defs><title>Asset 2</title><g id="Layer_2" data-name="Layer 2"><g id="Layer_1-2" data-name="Layer 1"><path class="cls-1" d="M164.33,66.22a12.39,12.39,0,0,1,1.28,6v1a6.57,6.57,0,0,1-.05,1,10.62,10.62,0,0,1-.82,3.12,13.66,13.66,0,0,1-1.84,3.07,18.33,18.33,0,0,1-7.47,5.67,27.33,27.33,0,0,1-10.73,1.9,23.23,23.23,0,0,1-11.65-2.92,22.87,22.87,0,0,1-4.76-3.53,19,19,0,0,1-3.52-4.6h0a3.46,3.46,0,0,1-.62-1.94V74.5a1.62,1.62,0,0,1,.16-.61,4.42,4.42,0,0,1,.61-1.23,3.1,3.1,0,0,1,1.17-.92l0,.05a3.31,3.31,0,0,1,1.84-.61,3.17,3.17,0,0,1,1.23.25v-.05a3.63,3.63,0,0,1,1.23.72,4.53,4.53,0,0,1,.92,1.07,18.21,18.21,0,0,0,2.3,3,13.13,13.13,0,0,0,3.06,2.36A18.81,18.81,0,0,0,140.46,80a15.13,15.13,0,0,0,4.09.51,19.24,19.24,0,0,0,7.2-1.23,11.76,11.76,0,0,0,4.86-3.37,5.4,5.4,0,0,0,1.12-2.15v-.3a3.41,3.41,0,0,0,.11-.77V72.1a9.33,9.33,0,0,0-.05-1.23,2.62,2.62,0,0,0-.31-.92,8.52,8.52,0,0,0-2.56-2.56,11,11,0,0,0-4-1.43,30.12,30.12,0,0,0-6-.51,34,34,0,0,1-8.43-.92,16.82,16.82,0,0,1-5.88-2.61,22.93,22.93,0,0,1-3.07-2.7,11.92,11.92,0,0,1-2-2.76,11.65,11.65,0,0,1-1-5.53l0-1.32a8.94,8.94,0,0,1,.77-3.07,14.75,14.75,0,0,1,1.84-3.12,18.3,18.3,0,0,1,7.46-5.67,27.29,27.29,0,0,1,10.68-2,23.38,23.38,0,0,1,8,1.38A25,25,0,0,1,160.29,41a5.14,5.14,0,0,1,1.07,1.07,3.29,3.29,0,0,1,.46,1.69,5.83,5.83,0,0,1-.15,1.38,2.75,2.75,0,0,1-.61,1.12,3.25,3.25,0,0,1-1.13,1,3.64,3.64,0,0,1-1.68.41,3.86,3.86,0,0,1-2.41-.71c-.05,0-.1-.05-.15-.11a15.25,15.25,0,0,0-10.12-3.67,19,19,0,0,0-7.21,1.22,12.34,12.34,0,0,0-4.8,3.37v0a4.59,4.59,0,0,0-1.08,2.15v.61a9.19,9.19,0,0,0,.21,2.61V53a8.24,8.24,0,0,0,2.6,2.55,12.26,12.26,0,0,0,4,1.49,28.72,28.72,0,0,0,5.93.56,37.14,37.14,0,0,1,8.38.87,17.77,17.77,0,0,1,6,2.45,23,23,0,0,1,2.82,2.4,13.13,13.13,0,0,1,2,2.56h0Z"/><path class="cls-1" d="M199.34,35.45a24.86,24.86,0,0,1,10,2,28,28,0,0,1,14,14,24.75,24.75,0,0,1,2,10,25,25,0,0,1-7.67,18.35A25.9,25.9,0,0,1,186,83.65c-1-.61-1.84-1.23-2.56-1.79a21.75,21.75,0,0,1-2.3-2.15v23.16a3.85,3.85,0,0,1-1,2.71,3.9,3.9,0,0,1-5.52,0,4,4,0,0,1-.77-1.23,4.06,4.06,0,0,1-.25-1.43V61.41a24.75,24.75,0,0,1,2-10,25.91,25.91,0,0,1,5.72-8.28,27.23,27.23,0,0,1,8.44-5.68,25.14,25.14,0,0,1,10-2Zm.31,44.37A18.33,18.33,0,0,0,218,61.46a17.9,17.9,0,0,0-5.37-13,18.32,18.32,0,0,0-26,0,18.38,18.38,0,0,0,0,26.07,17.7,17.7,0,0,0,13,5.37Z"/><path class="cls-1" d="M279.38,43.06a25.8,25.8,0,0,1,0,36.81,25.87,25.87,0,0,1-36.75,0A25,25,0,0,1,235,61.46a25.11,25.11,0,0,1,7.67-18.4,25.87,25.87,0,0,1,36.75,0ZM261,79.92a18.32,18.32,0,0,0,18.45-18.46,18.5,18.5,0,0,0-31.53-13,18.13,18.13,0,0,0-5.42,13.09A17.94,17.94,0,0,0,248,74.6,17.75,17.75,0,0,0,261,80Z"/><path class="cls-1" d="M323.85,80.12a3.76,3.76,0,0,1,2.71,1.18A3.49,3.49,0,0,1,327.73,84a3.82,3.82,0,0,1-1.17,2.76,3.73,3.73,0,0,1-2.76,1.07,26,26,0,0,1-18.92-7.67A28.34,28.34,0,0,1,299,71.59a25.42,25.42,0,0,1-2.29-10.28V18.89a4.14,4.14,0,0,1,1.17-2.77,4.09,4.09,0,0,1,5.52,0,3.74,3.74,0,0,1,1.07,2.77V35h15a4.18,4.18,0,0,1,2.76,1.17,3.7,3.7,0,0,1,1.08,2.71,3.9,3.9,0,0,1-1.08,2.81,4.48,4.48,0,0,1-2.76,1h-15V60.85A19.29,19.29,0,0,0,323.8,80.07Z"/><path class="cls-1" d="M378.33,76.54v.11a3.3,3.3,0,0,1,.57,1.12,6,6,0,0,1,.15,1.43,2.88,2.88,0,0,1-1.48,2.56l.05-.05A26,26,0,0,1,342.91,80a25.13,25.13,0,0,1-7.61-18.4,24.88,24.88,0,0,1,7.61-18.35,25.42,25.42,0,0,1,18.4-7.62,25.73,25.73,0,0,1,8.59,1.48,26.57,26.57,0,0,1,7.57,4.14,4.68,4.68,0,0,1,1.07,1.18,4.45,4.45,0,0,1,.51,1.68,4.21,4.21,0,0,1-.26,1.38,5.57,5.57,0,0,1-.61,1.28,3.91,3.91,0,0,1-1,.87,3.31,3.31,0,0,1-1.38.41h-.51a3.83,3.83,0,0,1-2.3-.82,20.58,20.58,0,0,0-5.52-3A18.42,18.42,0,0,0,343,61.57,18.42,18.42,0,0,0,361.42,80a17.9,17.9,0,0,0,11.65-4.09,3.55,3.55,0,0,1,2.2-.87h.51a3.86,3.86,0,0,1,2.61,1.53Z"/><path class="cls-1" d="M434.46,43.06a25.82,25.82,0,0,1,0,36.81,25.88,25.88,0,0,1-36.76,0A25,25,0,0,1,390,61.46,26.15,26.15,0,0,1,416.1,35.4,25,25,0,0,1,434.46,43.06ZM416.1,79.92a18.34,18.34,0,0,0,18.46-18.46,18.51,18.51,0,0,0-31.54-13,18.13,18.13,0,0,0-5.42,13.09A18.42,18.42,0,0,0,416.1,80Z"/><path class="cls-1" d="M456.53,34.32a4.22,4.22,0,0,1,3.17,1.59,6,6,0,0,1,.46.92,3.4,3.4,0,0,1,.21,1.38V84a3.46,3.46,0,0,1-.21,1.38,3.85,3.85,0,0,1-.51.92,4.23,4.23,0,0,1-3.07,1.53,3.8,3.8,0,0,1-2.6-1.18,3.52,3.52,0,0,1-1.23-2.71V38.16A3.42,3.42,0,0,1,454,35.5a3.8,3.8,0,0,1,2.6-1.18Zm3-18.09A3.9,3.9,0,0,1,460.57,19v8.53a3.91,3.91,0,0,1-1.12,2.71,3.6,3.6,0,0,1-2.66,1.13,3.42,3.42,0,0,1-2.71-1.18,4.05,4.05,0,0,1-.87-1.23,3.45,3.45,0,0,1-.31-1.38V19a3.61,3.61,0,0,1,1.23-2.86v.05a3.52,3.52,0,0,1,2.61-1A4.09,4.09,0,0,1,459.5,16.23Z"/><path class="cls-1" d="M488.84,35.7A21.37,21.37,0,0,1,510.1,57V84.06a4.42,4.42,0,0,1-.2,1.48,2.75,2.75,0,0,1-.82,1.12,3.88,3.88,0,0,1-5.52,0,3.81,3.81,0,0,1-1-2.55V57a13.16,13.16,0,0,0-4-9.77A13.65,13.65,0,0,0,475.19,57V84.06a3.25,3.25,0,0,1-1.07,2.6,3.6,3.6,0,0,1-2.77,1.13,3.78,3.78,0,0,1-1.38-.21,2.78,2.78,0,0,1-1.17-.92,3.09,3.09,0,0,1-1.07-2.6V56.66a20.06,20.06,0,0,1,6.33-14.77,20.28,20.28,0,0,1,14.88-6.19Z"/><path class="cls-2" d="M46.7,13.38h.2a2.9,2.9,0,0,1,.08,5.8h-.26Z"/><path class="cls-2" d="M46.7,13.38h.2a2.9,2.9,0,0,1,.08,5.8h-.26Z"/><path class="cls-3" d="M46.9,19.18v-5.8h-.6A51,51,0,0,0,36,14.48a34.94,34.94,0,0,0-10,3.71,23.1,23.1,0,0,0-8.16,7.56,20.28,20.28,0,0,0-3.1,10.87v0a29.08,29.08,0,0,0,.59,5.84,22.45,22.45,0,0,0,2,5.69,21.11,21.11,0,0,0,3.53,4.93,26.05,26.05,0,0,0,4.53,3.78,47.3,47.3,0,0,0,10.08,4.9c3.42,1.26,6.84,2.27,10.2,3.29,3,.92,6,1.84,8.9,2.93a38.13,38.13,0,0,1,7.94,3.92,16,16,0,0,1,5.44,5.91,17,17,0,0,1,1.7,7.92h0a13.89,13.89,0,0,1-2.21,7.59,16.66,16.66,0,0,1-6.07,5.47,28.45,28.45,0,0,1-8.28,2.89,49.29,49.29,0,0,1-9,.87h0A39.76,39.76,0,0,1,33.33,101a40.64,40.64,0,0,1-14.8-7.68h0a9.95,9.95,0,0,0-13.46.55h0l-3.6,3.59,0,0a5,5,0,0,0-.08,7l0,0a59.46,59.46,0,0,0,9,7.65,52.25,52.25,0,0,0,10.49,5.58,62.8,62.8,0,0,0,23.1,4h0a59.15,59.15,0,0,0,21.13-3.62A43.14,43.14,0,0,0,74,113.5h0a34.77,34.77,0,0,0,10.85-11.94,33,33,0,0,0,3.91-15.7h0A35.94,35.94,0,0,0,85,69.08,35.14,35.14,0,0,0,73.51,56.24h0a55.23,55.23,0,0,0-11.34-5.86c-3.91-1.52-7.85-2.71-11.72-3.88h0c-2.18-.68-4.36-1.37-6.45-2.18a37,37,0,0,1-6.43-3l-.7-.44-.62-.47a5.2,5.2,0,0,1-.55-.47l-.26-.23-.2-.24a2.29,2.29,0,0,1-.35-.45l-.14-.21a1.76,1.76,0,0,1-.09-.2,2.24,2.24,0,0,1-.19-.76c0-.12,0-.24,0-.36s.05-.29.07-.43h0A3.54,3.54,0,0,1,36,35.3a12.75,12.75,0,0,1,3.18-1.57,23.19,23.19,0,0,1,7.68-1.17h0a36.54,36.54,0,0,1,8.21,1.12,26.31,26.31,0,0,1,7.42,3h0a17.67,17.67,0,0,0,4.38,2,17.49,17.49,0,0,0,4.77.61A16.3,16.3,0,0,0,85,31.83v0A16.29,16.29,0,0,0,87.52,24a16.81,16.81,0,0,0-2-8.65,17.14,17.14,0,0,0-6-6.45h0a52,52,0,0,0-6.87-3.55A66.81,66.81,0,0,0,60,1.39C57.87,1,55.7.6,53.51.36S49.12,0,46.9,0h0A64,64,0,0,0,31.1,1.89,46,46,0,0,0,16.32,8.45h0a35.37,35.37,0,0,0-11,12.18,33.46,33.46,0,0,0-3.95,16h0a38.51,38.51,0,0,0,3.78,17,35.38,35.38,0,0,0,5.13,7.68,38.7,38.7,0,0,0,6.83,6.1h0a57.3,57.3,0,0,0,11.73,6.18c4,1.61,8.16,2.87,12.23,4h0a66,66,0,0,1,9.52,3.26,12.64,12.64,0,0,1,3.53,2.32A4.2,4.2,0,0,1,55,84.52a3,3,0,0,1,.25,1.36l0,.39-.06.42h0a1.88,1.88,0,0,1-.6,1,4.82,4.82,0,0,1-1.6.89,16.35,16.35,0,0,1-5,.74,31.93,31.93,0,0,1-3.64-.15h0a39.73,39.73,0,0,1-9.6-2.1,24.53,24.53,0,0,1-8.14-4.68l-.36-.33-1,1.05-1,1-1,1-1,1,.48.44a30.25,30.25,0,0,0,10.07,5.84,45.89,45.89,0,0,0,11,2.42h0a38.35,38.35,0,0,0,4.3.18,21.91,21.91,0,0,0,6.87-1.08A10.53,10.53,0,0,0,58.49,92,7.83,7.83,0,0,0,60,90.11a8.32,8.32,0,0,0,.85-2.25v0L61,87c0-.3,0-.61.07-.92a9.07,9.07,0,0,0-.71-3.78,10,10,0,0,0-2.06-3.06,18,18,0,0,0-5.2-3.51,70,70,0,0,0-10.41-3.6h0c-4-1.15-7.93-2.36-11.69-3.86a51.44,51.44,0,0,1-10.53-5.53h0a30.61,30.61,0,0,1-10.1-11.59A32.78,32.78,0,0,1,7.12,36.65h0a27.82,27.82,0,0,1,3.27-13.26,29.42,29.42,0,0,1,9.23-10.16h0a40,40,0,0,1,12.9-5.71A58.48,58.48,0,0,1,46.89,5.8h0a60,60,0,0,1,6,.33c2,.22,4,.54,6,.94a61.41,61.41,0,0,1,11.48,3.58,47,47,0,0,1,6.11,3.16h0l.61.42.3.21.28.24.57.48.51.53L79,16l.22.29.46.58a10.76,10.76,0,0,1,.77,1.25,11.05,11.05,0,0,1,1.31,5.64,10.46,10.46,0,0,1-1.6,5h0a10.52,10.52,0,0,1-8.6,4.79,12.18,12.18,0,0,1-3.06-.4,11.94,11.94,0,0,1-2.82-1.28h0a31.61,31.61,0,0,0-9.16-3.72A42.74,42.74,0,0,0,47,26.76h0a28.9,28.9,0,0,0-9.67,1.49,18.44,18.44,0,0,0-4.69,2.36c-.38.28-.75.6-1.12.91l-.54.55a5.17,5.17,0,0,0-.51.6l-.49.66c-.15.23-.28.5-.42.76a8.26,8.26,0,0,0-.63,1.71v0c-.06.35-.12.69-.17,1s0,.75,0,1.13a8.68,8.68,0,0,0,.2,1.51c.06.25.13.5.2.74a6,6,0,0,0,.28.7c.1.22.2.46.32.67l.37.59a7.72,7.72,0,0,0,.82,1.07c.15.16.29.33.44.48l.44.42a9.07,9.07,0,0,0,.91.77l.92.69.92.59a43.06,43.06,0,0,0,7.44,3.5c2.27.88,4.55,1.6,6.83,2.31h0c3.87,1.17,7.66,2.33,11.29,3.75A49.44,49.44,0,0,1,70.21,61h0a29.41,29.41,0,0,1,9.61,10.72A30.22,30.22,0,0,1,83,85.81h0a27.15,27.15,0,0,1-3.21,13,28.86,28.86,0,0,1-9,9.93h0a36.62,36.62,0,0,1-7.66,4,46.45,46.45,0,0,1-9.31,2.48A61.91,61.91,0,0,1,44,116h0a56.82,56.82,0,0,1-21-3.61,46.64,46.64,0,0,1-9.33-5c-.72-.5-1.46-1-2.14-1.56s-1.42-1.07-2.07-1.68-1.35-1.15-2-1.78L6.11,101h0l3-3h0a4.13,4.13,0,0,1,2.76-1.2,4.22,4.22,0,0,1,2.88,1h0a46.59,46.59,0,0,0,16.94,8.82A45.48,45.48,0,0,0,44,108.37h0a54.94,54.94,0,0,0,10.19-1,34.26,34.26,0,0,0,9.93-3.51,22.41,22.41,0,0,0,8.13-7.38,19.68,19.68,0,0,0,3.14-10.73h0a22.83,22.83,0,0,0-2.33-10.59,20.08,20.08,0,0,0-3.21-4.55,25.2,25.2,0,0,0-4.13-3.5,43.65,43.65,0,0,0-9.15-4.56c-3.1-1.17-6.21-2.12-9.27-3-3.37-1-6.7-2-9.88-3.18a41.91,41.91,0,0,1-8.85-4.27,17.75,17.75,0,0,1-6.14-6.57,19.26,19.26,0,0,1-1.95-8.86h0a14.51,14.51,0,0,1,2.19-7.78,17.46,17.46,0,0,1,6.14-5.63,29.46,29.46,0,0,1,8.36-3.07,45,45,0,0,1,9.17-1Z"/><path class="cls-4" d="M22.32,86.43l-.16-.15A2.9,2.9,0,1,1,26.05,82l.13.11.12.11Z"/><path class="cls-4" d="M22.32,86.43l-.16-.15A2.9,2.9,0,1,1,26.05,82l.13.11.12.11Z"/><path class="cls-5" d="M71.82,25.88a2.85,2.85,0,0,1-1.57-.47,39.77,39.77,0,0,0-11.67-4.8A2.9,2.9,0,1,1,60,15,45.2,45.2,0,0,1,73.4,20.54a2.9,2.9,0,0,1-1.58,5.34Z"/><path class="cls-5" d="M71.82,25.88a2.85,2.85,0,0,1-1.57-.47,39.77,39.77,0,0,0-11.67-4.8A2.9,2.9,0,1,1,60,15,45.2,45.2,0,0,1,73.4,20.54a2.9,2.9,0,0,1-1.58,5.34Z"/></g></g></svg>