<svg xmlns="http://www.w3.org/2000/svg" viewBox="0 0 29.17 40"><defs><style>.cls-1{fill:#fff;}</style></defs><title>logo-white</title><g id="Layer_2" data-name="Layer 2"><g id="Layer_1-2" data-name="Layer 1"><path class="cls-1" d="M15.34,4.4h.07a.94.94,0,0,1,1,.93,1,1,0,0,1-.94,1h-.08Z"/><path class="cls-1" d="M15.34,4.4h.07a.94.94,0,0,1,1,.93,1,1,0,0,1-.94,1h-.08Z"/><path class="cls-1" d="M15.41,6.3V4.4h-.2a16.21,16.21,0,0,0-3.39.36A11.46,11.46,0,0,0,8.53,6,7.68,7.68,0,0,0,5.85,8.46a6.69,6.69,0,0,0-1,3.57h0A9.59,9.59,0,0,0,5,14a7.86,7.86,0,0,0,.66,1.87,7.3,7.3,0,0,0,1.16,1.63,9.71,9.71,0,0,0,1.49,1.24,15.78,15.78,0,0,0,3.31,1.61c1.13.41,2.25.74,3.35,1.08s2,.6,2.93,1a12.44,12.44,0,0,1,2.61,1.29,5.34,5.34,0,0,1,1.79,1.94,5.72,5.72,0,0,1,.55,2.6h0a4.62,4.62,0,0,1-.72,2.5,5.5,5.5,0,0,1-2,1.79,9.16,9.16,0,0,1-2.72,1,16.16,16.16,0,0,1-3,.28h0A13.18,13.18,0,0,1,11,33.19a13.45,13.45,0,0,1-4.86-2.53h0a3.3,3.3,0,0,0-2.25-.77,3.25,3.25,0,0,0-2.18.95h0L.48,32h0a1.65,1.65,0,0,0,0,2.31h0a19.81,19.81,0,0,0,3,2.52,17,17,0,0,0,3.45,1.83A20.65,20.65,0,0,0,14.46,40h0a19.53,19.53,0,0,0,6.94-1.19,14.48,14.48,0,0,0,2.92-1.52h0a11.52,11.52,0,0,0,3.57-3.93,10.84,10.84,0,0,0,1.28-5.16h0a11.82,11.82,0,0,0-1.25-5.51,11.5,11.5,0,0,0-3.77-4.21h0a18.06,18.06,0,0,0-3.73-1.92c-1.28-.5-2.58-.89-3.85-1.28h0c-.72-.22-1.43-.45-2.12-.71a13.26,13.26,0,0,1-2.11-1l-.23-.15-.21-.15-.18-.15L11.64,13,11.57,13a.72.72,0,0,1-.11-.15l-.05-.07,0-.06a.54.54,0,0,1-.06-.25v-.12l0-.14h0a1.14,1.14,0,0,1,.47-.57,4.29,4.29,0,0,1,1-.52,7.59,7.59,0,0,1,2.52-.38h0a11.78,11.78,0,0,1,2.69.37,8.7,8.7,0,0,1,2.44,1h0a5.49,5.49,0,0,0,1.44.65,5.94,5.94,0,0,0,1.57.21A5.56,5.56,0,0,0,26,12.22a5.41,5.41,0,0,0,1.89-1.76h0a5.31,5.31,0,0,0,.82-2.57A5.48,5.48,0,0,0,28.1,5a5.68,5.68,0,0,0-2-2.12h0a17.3,17.3,0,0,0-2.26-1.17A21.81,21.81,0,0,0,19.72.46C19,.31,18.3.2,17.58.12S16.14,0,15.41,0h0a21.18,21.18,0,0,0-5.19.62A15.12,15.12,0,0,0,5.36,2.78h0a11.62,11.62,0,0,0-3.63,4A11,11,0,0,0,.44,12h0a12.69,12.69,0,0,0,1.24,5.59,11.9,11.9,0,0,0,1.68,2.52,12.55,12.55,0,0,0,2.25,2h0a18.69,18.69,0,0,0,3.85,2,42,42,0,0,0,4,1.33h0a21.52,21.52,0,0,1,3.12,1.08,3.83,3.83,0,0,1,1.16.76,1.18,1.18,0,0,1,.29.42,1.08,1.08,0,0,1,.09.44v.13l0,.14h0a.58.58,0,0,1-.19.34,1.61,1.61,0,0,1-.53.3,5.49,5.49,0,0,1-1.64.24,9.63,9.63,0,0,1-1.2-.05h0a13.39,13.39,0,0,1-3.16-.69,8,8,0,0,1-2.67-1.54L8.6,27l-.33.35-.33.34L7.61,28l-.33.35.16.14a9.89,9.89,0,0,0,3.31,1.92,15.15,15.15,0,0,0,3.61.79h0a10.93,10.93,0,0,0,1.41.06A7.12,7.12,0,0,0,18,30.91a3.4,3.4,0,0,0,1.17-.69,2.32,2.32,0,0,0,.49-.62,2.46,2.46,0,0,0,.28-.74h0l.05-.29c0-.1,0-.2,0-.3A3,3,0,0,0,19.82,27a3.2,3.2,0,0,0-.68-1,5.78,5.78,0,0,0-1.71-1.15A23.62,23.62,0,0,0,14,23.68h0a38.37,38.37,0,0,1-3.84-1.27A17.22,17.22,0,0,1,6.71,20.6h0a10,10,0,0,1-3.31-3.8A10.71,10.71,0,0,1,2.34,12h0A9.13,9.13,0,0,1,3.41,7.68a9.7,9.7,0,0,1,3-3.34h0a13.26,13.26,0,0,1,4.24-1.87,19.55,19.55,0,0,1,4.72-.57h0c.65,0,1.31.05,2,.11s1.31.18,1.95.31A19.43,19.43,0,0,1,23.1,3.5a14.13,14.13,0,0,1,2,1h0l.2.14.1.06.1.08.18.16.17.17.08.09.08.1.15.18c.08.14.18.27.25.42a3.65,3.65,0,0,1,.43,1.85,3.48,3.48,0,0,1-.52,1.63h0a3.57,3.57,0,0,1-1.21,1.14A3.61,3.61,0,0,1,23.5,11a3.83,3.83,0,0,1-1-.13,3.63,3.63,0,0,1-.92-.42h0a10.36,10.36,0,0,0-3-1.22,13.73,13.73,0,0,0-3.13-.43h0a9.68,9.68,0,0,0-3.18.49,6.38,6.38,0,0,0-1.54.78l-.36.3-.18.18a1.54,1.54,0,0,0-.17.19L9.83,11l-.14.25a2.48,2.48,0,0,0-.2.56h0c0,.11,0,.23-.05.34s0,.25,0,.37a2.87,2.87,0,0,0,.07.5,2.79,2.79,0,0,0,.16.47,2.14,2.14,0,0,0,.1.22l.13.19a1.62,1.62,0,0,0,.27.35,1.07,1.07,0,0,0,.14.16l.15.14a2.26,2.26,0,0,0,.29.25L11,15l.31.19a14.61,14.61,0,0,0,2.44,1.16c.75.28,1.5.52,2.25.75h0c1.27.38,2.52.76,3.71,1.22A16.72,16.72,0,0,1,23.07,20h0a9.69,9.69,0,0,1,3.16,3.52,10,10,0,0,1,1,4.63h0a8.88,8.88,0,0,1-1.06,4.26,9.55,9.55,0,0,1-3,3.26h0A12,12,0,0,1,20.72,37a15.87,15.87,0,0,1-3.06.82,22.64,22.64,0,0,1-3.2.25h0a18.84,18.84,0,0,1-6.9-1.19A15.49,15.49,0,0,1,4.5,35.28c-.24-.17-.48-.33-.71-.51s-.46-.35-.68-.55-.44-.38-.65-.59L2,33.18H2l1-1H3a1.34,1.34,0,0,1,.9-.4,1.41,1.41,0,0,1,1,.33h0A15.32,15.32,0,0,0,10.43,35a15.1,15.1,0,0,0,4,.58h0a18.1,18.1,0,0,0,3.35-.32,11.34,11.34,0,0,0,3.26-1.15,7.19,7.19,0,0,0,2.67-2.42,6.52,6.52,0,0,0,1-3.53h0A7.57,7.57,0,0,0,24,24.7,6.3,6.3,0,0,0,23,23.21a7.29,7.29,0,0,0-1.35-1.15,14.33,14.33,0,0,0-3-1.5c-1-.39-2-.7-3-1s-2.2-.66-3.25-1a14,14,0,0,1-2.91-1.4,6,6,0,0,1-2-2.16A6.4,6.4,0,0,1,6.74,12h0a4.73,4.73,0,0,1,.72-2.55,5.78,5.78,0,0,1,2-1.85,9.43,9.43,0,0,1,2.75-1,15,15,0,0,1,3-.32Z"/><path class="cls-1" d="M7.33,28.4l0,0a1,1,0,1,1,1.28-1.41l0,0,0,0Z"/><path class="cls-1" d="M7.33,28.4l0,0a1,1,0,1,1,1.28-1.41l0,0,0,0Z"/><path class="cls-1" d="M23.6,8.5a1,1,0,0,1-.52-.15,13.33,13.33,0,0,0-3.83-1.58,1,1,0,0,1-.7-1.15,1,1,0,0,1,1.16-.7,14.71,14.71,0,0,1,4.4,1.83A.95.95,0,0,1,23.6,8.5Z"/><path class="cls-1" d="M23.6,8.5a1,1,0,0,1-.52-.15,13.33,13.33,0,0,0-3.83-1.58,1,1,0,0,1-.7-1.15,1,1,0,0,1,1.16-.7,14.71,14.71,0,0,1,4.4,1.83A.95.95,0,0,1,23.6,8.5Z"/></g></g></svg>